<svg width="79" height="79" viewBox="0 0 79 79" fill="none" xmlns="http://www.w3.org/2000/svg">
<path d="M57.3169 59H60C62.2091 59 64 57.2091 64 55V10C64 7.79086 62.2091 6 60 6H34C31.7909 6 30 7.79086 30 10V13.2583" stroke="#191847" stroke-width="2.5"/>
<path d="M23 19.9583V17C23 14.7909 24.7909 13 27 13H53C55.2091 13 57 14.7909 57 17V62C57 64.2091 55.2091 66 53 66H50.0584" stroke="#191847" stroke-width="2.5"/>
<rect x="16" y="20" width="34" height="53" rx="4" stroke="#191847" stroke-width="2.5"/>
<circle cx="33" cy="38.5" r="3.5" stroke="#191847" stroke-width="2.5"/>
<path d="M27.602 49C28.0502 49.9998 28.4979 50 32.9776 50C37.4576 50 37.9056 50 38.3535 49C38.9364 47.6989 37.9052 43 32.9776 43C28.05 43 27.1537 48 27.602 49Z" stroke="#191847" stroke-width="2.5"/>
</svg>
