<svg width="79" height="79" viewBox="0 0 79 79" fill="none" xmlns="http://www.w3.org/2000/svg">
<path d="M39.5192 45.9801L39.5151 45.9802C35.8709 45.9977 32.5132 46.0139 29.8724 45.719L30.4743 43.0321C32.844 43.27 35.9135 43.2615 39.5061 43.2442C42.7998 43.2283 45.6539 43.209 47.9301 43.0047L48.532 45.6951C45.998 45.9488 42.8803 45.9639 39.5192 45.9801Z" fill="#191847"/>
<path d="M39.4227 27.0641C44.9647 27.0374 49.8595 29.9407 52.5801 34.2871L50.3378 35.8665C48.1274 32.2353 44.0705 29.7778 39.4359 29.8001C34.7087 29.8229 30.608 32.4217 28.4679 36.1961L26.2959 34.4877C28.963 30.0747 33.8509 27.091 39.4227 27.0641Z" fill="#191847"/>
<path fill-rule="evenodd" clip-rule="evenodd" d="M32.2449 16.6399C32.2271 12.887 35.3156 9.75459 39.2409 9.73608ZM32.2449 16.6408C32.2649 20.3934 35.3847 23.4957 39.3117 23.4772C43.2384 23.457 46.326 20.3247 46.3077 16.5725C46.2894 12.821 43.169 9.71756 39.2409 9.73608M39.3246 26.2131C33.9297 26.2386 29.5365 21.9602 29.5089 16.6541C29.483 11.3481 33.8331 7.02555 39.228 7.00011C44.6229 6.97468 49.0178 11.2531 49.0437 16.5591C49.0695 21.8652 44.7195 26.186 39.3246 26.2131Z" fill="#191847"/>
<path fill-rule="evenodd" clip-rule="evenodd" d="M44.0373 67.4967L41.3059 67.5103C41.2645 59.2089 48.1358 52.3829 56.5762 52.3422C65.0183 52.3015 71.9586 59.0597 72 67.3611C72.019 71.1836 65.1132 71.2175 56.6728 71.2582L56.6686 71.2582C48.2284 71.2989 41.3248 71.3322 41.3059 67.5103L44.0373 67.4967C44.0373 67.4967 44.0373 67.4967 44.0373 67.4967ZM44.0417 67.4344C44.0501 67.4406 44.0596 67.4473 44.0701 67.4545C44.3611 67.653 45.0223 67.9244 46.2806 68.1342C48.7805 68.5511 52.3423 68.5431 56.6596 68.5223C60.9758 68.5014 64.537 68.4748 67.0323 68.0336C68.2883 67.8115 68.9466 67.5337 69.2355 67.3324C69.2459 67.3252 69.2552 67.3184 69.2636 67.3122C69.1954 60.5928 63.5426 55.0447 56.5894 55.0782C49.6389 55.1117 44.0427 60.7142 44.0417 67.4344ZM69.3244 67.2606C69.3255 67.2593 69.3261 67.2586 69.3261 67.2586Z" fill="#191847"/>
<path fill-rule="evenodd" clip-rule="evenodd" d="M49.3982 41.918C49.3804 38.1651 52.4689 35.0327 56.3942 35.0142ZM49.3982 41.9188C49.4182 45.6714 52.538 48.7738 56.465 48.7553C60.3917 48.7351 63.4793 45.6027 63.461 41.8506C63.4428 38.0991 60.3224 34.9956 56.3942 35.0142M56.4779 51.4912C51.083 51.5167 46.6898 47.2382 46.6622 41.9322C46.6364 36.6261 50.9864 32.3036 56.3813 32.2782C61.7762 32.2528 66.1711 36.5312 66.197 41.8372C66.2229 47.1433 61.8728 51.4641 56.4779 51.4912Z" fill="#191847"/>
<path fill-rule="evenodd" clip-rule="evenodd" d="M9.73164 67.4964L7.00019 67.5101C6.9588 59.2087 13.8301 52.3827 22.2705 52.342C30.7127 52.3013 37.653 59.0594 37.6943 67.3608C37.7133 71.1834 30.8075 71.2173 22.3671 71.258L22.363 71.258C13.9227 71.2987 7.01915 71.332 7.00019 67.5101L9.73166 67.4965C9.73165 67.4965 9.73165 67.4965 9.73164 67.4964ZM9.736 67.4341C9.74447 67.4403 9.75393 67.447 9.76447 67.4542C10.0554 67.6528 10.7167 67.9242 11.975 68.134C14.4748 68.5509 18.0366 68.5428 22.3539 68.522C26.6701 68.5012 30.2314 68.4746 32.7266 68.0334C33.9826 67.8113 34.641 67.5335 34.9298 67.3321C34.9402 67.3249 34.9495 67.3182 34.9579 67.3119C34.8897 60.5926 29.2369 55.0444 22.2837 55.0779C15.3332 55.1115 9.73706 60.7139 9.736 67.4341ZM35.0187 67.2604C35.0198 67.259 35.0204 67.2584 35.0204 67.2584Z" fill="#191847"/>
<path fill-rule="evenodd" clip-rule="evenodd" d="M15.0925 41.9177C15.0747 38.1649 18.1632 35.0324 22.0886 35.0139ZM15.0925 41.9186C15.1125 45.6712 18.2323 48.7735 22.1593 48.755C26.086 48.7348 29.1737 45.6025 29.1554 41.8503C29.1371 38.0988 26.0167 34.9954 22.0886 35.0139M22.1722 51.491C16.7773 51.5164 12.3841 47.238 12.3566 41.9319C12.3307 36.6259 16.6808 32.3034 22.0757 32.2779C27.4706 32.2525 31.8655 36.5309 31.8913 41.837C31.9172 47.143 27.5671 51.4638 22.1722 51.491Z" fill="#191847"/>
</svg>
