<svg width="79" height="79" viewBox="0 0 79 79" fill="none" xmlns="http://www.w3.org/2000/svg">
<path d="M54.558 8.60017C54.8618 8.0451 54.703 7.35054 54.188 6.98278C53.6731 6.61502 52.9645 6.69008 52.5381 7.15756L22.0765 40.5489C21.7428 40.9147 21.6565 41.443 21.8564 41.896C22.0563 42.349 22.5048 42.6413 23 42.6413H38.6754L23.1689 71.4069C22.8672 71.9666 23.0338 72.6637 23.556 73.0265C24.0782 73.3894 24.7896 73.3023 25.2089 72.8243L56.9397 36.6504C57.2633 36.2814 57.3411 35.7573 57.1386 35.3103C56.9361 34.8632 56.4907 34.5761 56 34.5761H40.34L54.558 8.60017Z" stroke="#191847" stroke-width="2.5" stroke-linecap="round" stroke-linejoin="round"/>
</svg>
