<svg width="79" height="79" viewBox="0 0 79 79" fill="none" xmlns="http://www.w3.org/2000/svg">
<rect x="64.75" y="24.25" width="31.5" height="50.5" rx="2.75" transform="rotate(90 64.75 24.25)" stroke="#191847" stroke-width="2.5"/>
<path d="M6 25V19C6 17.3431 7.34315 16 9 16H15" stroke="#191847" stroke-width="2.5" stroke-linecap="round" stroke-linejoin="round"/>
<path d="M73 25V19C73 17.3431 71.6569 16 70 16H64" stroke="#191847" stroke-width="2.5" stroke-linecap="round" stroke-linejoin="round"/>
<path d="M6 55V61C6 62.6569 7.34315 64 9 64H15" stroke="#191847" stroke-width="2.5" stroke-linecap="round" stroke-linejoin="round"/>
<path d="M73 55V61C73 62.6569 71.6569 64 70 64H64" stroke="#191847" stroke-width="2.5" stroke-linecap="round" stroke-linejoin="round"/>
<path d="M36 32L57 32" stroke="#191847" stroke-width="2.5" stroke-linecap="round" stroke-linejoin="round"/>
<path d="M36 40L57 40" stroke="#191847" stroke-width="2.5" stroke-linecap="round" stroke-linejoin="round"/>
<path d="M22 48L57 48" stroke="#191847" stroke-width="2.5" stroke-linecap="round" stroke-linejoin="round"/>
<rect x="22.25" y="32.25" width="7.5" height="7.5" rx="1.75" stroke="#191847" stroke-width="2.5" stroke-linejoin="bevel"/>
</svg>
